<svg width="144" height="144" xmlns="http://www.w3.org/2000/svg" xmlns:xlink="http://www.w3.org/1999/xlink" xml:space="preserve" overflow="hidden"><defs><clipPath id="clip0"><rect x="770" y="302" width="144" height="144"/></clipPath><clipPath id="clip1"><rect x="771" y="303" width="143" height="143"/></clipPath><clipPath id="clip2"><rect x="771" y="303" width="143" height="143"/></clipPath><clipPath id="clip3"><rect x="771" y="303" width="143" height="143"/></clipPath></defs><g clip-path="url(#clip0)" transform="translate(-770 -302)"><g clip-path="url(#clip1)"><g clip-path="url(#clip2)"><g clip-path="url(#clip3)"><path d="M841.01 321.62C835.499 318.939 829.839 317.151 824.178 316.406 840.564 332.643 845.479 358.115 834.605 380.011 823.88 401.908 800.345 413.229 777.703 410.101 781.725 414.123 786.641 417.698 792.003 420.379 819.263 433.934 852.331 422.763 865.737 395.503 879.144 368.244 868.27 335.324 841.01 321.62Z" stroke="#000000" stroke-width="6" stroke-linecap="butt" stroke-linejoin="miter" stroke-miterlimit="4" stroke-opacity="1" fill="#BFBFBF" fill-rule="nonzero" fill-opacity="1"/><path d="M900.445 384.182C900.147 383.735 900.147 383.14 900.445 382.693L903.275 378.522C903.573 377.926 903.573 377.33 903.275 376.883 902.977 376.436 902.232 376.139 901.785 376.288L897.168 377.479C896.572 377.628 895.976 377.33 895.678 376.883L892.848 372.712C892.401 372.117 891.805 371.968 891.209 372.117 890.614 372.266 890.167 372.861 890.167 373.457L889.869 378.522C889.869 379.118 889.422 379.565 888.826 379.862L884.208 380.905C883.612 381.054 883.166 381.501 883.166 382.246 883.166 382.842 883.464 383.438 884.059 383.586L885.996 384.629 888.528 385.97C888.677 386.119 888.975 386.268 889.124 386.566 889.273 386.864 889.273 387.013 889.273 387.31L889.273 392.375C889.273 392.971 889.571 393.567 890.167 393.716 890.763 393.865 891.358 393.716 891.805 393.269L895.082 389.247C895.529 388.8 896.125 388.651 896.721 388.8L901.636 390.587C902.232 390.736 902.828 390.587 903.275 390.141 903.722 389.694 903.722 388.949 903.424 388.502L900.445 384.182Z" stroke="#000000" stroke-width="6" stroke-linecap="butt" stroke-linejoin="miter" stroke-miterlimit="4" stroke-opacity="1" fill="#BFBFBF" fill-rule="nonzero" fill-opacity="1"/><path d="M886.294 347.092 890.316 339.793C890.763 338.899 891.656 338.452 892.699 338.601L900.892 339.942C901.934 340.091 902.828 339.644 903.275 338.75 903.722 337.856 903.573 336.665 902.977 336.069L897.317 329.961C896.721 329.366 896.572 328.323 896.87 327.429L899.998 319.832C900.296 318.939 900.147 317.896 899.551 317.3 898.955 316.704 897.764 316.406 897.019 316.853L890.018 320.279C889.124 320.726 888.081 320.428 887.485 319.832L881.825 314.172C881.08 313.427 879.889 313.278 878.995 313.576 878.101 314.023 877.654 315.066 877.654 315.959L878.697 323.854C878.846 324.897 878.399 325.791 877.505 326.237L870.504 329.664C869.61 330.11 869.164 331.004 869.312 332.047 869.461 332.941 870.206 333.834 871.1 333.983L874.526 335.026 878.995 336.367C879.442 336.516 879.74 336.814 880.186 337.111 880.484 337.409 880.633 337.856 880.782 338.303L882.123 346.496C882.272 347.539 883.017 348.283 884.059 348.432 885.102 348.581 885.847 347.985 886.294 347.092Z" stroke="#000000" stroke-width="6" stroke-linecap="butt" stroke-linejoin="miter" stroke-miterlimit="4" stroke-opacity="1" fill="#BFBFBF" fill-rule="nonzero" fill-opacity="1"/></g></g></g></g></svg>