<svg width="97" height="98" xmlns="http://www.w3.org/2000/svg" xmlns:xlink="http://www.w3.org/1999/xlink" xml:space="preserve" overflow="hidden"><defs><clipPath id="clip0"><rect x="980" y="366" width="97" height="98"/></clipPath><clipPath id="clip1"><rect x="981" y="367" width="96" height="96"/></clipPath><clipPath id="clip2"><rect x="981" y="367" width="96" height="96"/></clipPath><clipPath id="clip3"><rect x="981" y="367" width="96" height="96"/></clipPath></defs><g clip-path="url(#clip0)" transform="translate(-980 -366)"><g clip-path="url(#clip1)"><g clip-path="url(#clip2)"><g clip-path="url(#clip3)"><path d="M1028.98 377C1008 377 991 394.004 991 414.979 991 435.954 1008 452.958 1028.98 452.958 1049.95 452.958 1066.96 435.954 1066.96 414.979 1066.97 394.013 1049.98 377.009 1029.01 377 1029 377 1028.99 377 1028.98 377ZM1028.98 450.958C1009.11 450.958 993 434.85 993 414.979 993 395.108 1009.11 379 1028.98 379 1048.85 379 1064.96 395.108 1064.96 414.979 1064.94 434.84 1048.84 450.935 1028.98 450.958Z" stroke="#000000" stroke-width="2" stroke-linecap="butt" stroke-linejoin="miter" stroke-miterlimit="4" stroke-opacity="1" fill="none" fill-rule="nonzero"/><path d="M1030 402 1022 402 1022 404 1028 404 1028 434 1021 434 1021 436 1037 436 1037 434 1030 434 1030 402Z" stroke="#000000" stroke-width="2" stroke-linecap="butt" stroke-linejoin="miter" stroke-miterlimit="4" stroke-opacity="1" fill="none" fill-rule="nonzero"/><path d="M1030.06 393.5C1030.06 394.743 1029.06 395.75 1027.81 395.75 1026.57 395.75 1025.56 394.743 1025.56 393.5 1025.56 392.257 1026.57 391.25 1027.81 391.25 1029.06 391.25 1030.06 392.257 1030.06 393.5Z" stroke="#000000" stroke-width="2" stroke-linecap="butt" stroke-linejoin="miter" stroke-miterlimit="4" stroke-opacity="1" fill="none" fill-rule="nonzero"/></g></g></g></g></svg>