<svg width="224" height="221" xmlns="http://www.w3.org/2000/svg" xmlns:xlink="http://www.w3.org/1999/xlink" xml:space="preserve" overflow="hidden"><defs><clipPath id="clip0"><rect x="856" y="348" width="224" height="221"/></clipPath><clipPath id="clip1"><rect x="857" y="348" width="222" height="221"/></clipPath><clipPath id="clip2"><rect x="857" y="348" width="222" height="221"/></clipPath><clipPath id="clip3"><rect x="857" y="348" width="222" height="221"/></clipPath></defs><g clip-path="url(#clip0)" transform="translate(-856 -348)"><g clip-path="url(#clip1)"><g clip-path="url(#clip2)"><g clip-path="url(#clip3)"><path d="M116.025 159.765 109.579 153.319 153.319 109.579 159.765 116.025 116.025 159.765ZM93.4646 137.204 137.204 93.4646 143.65 99.9104 99.9104 143.65 93.4646 137.204ZM77.35 121.09 121.09 77.35 127.535 83.7958 83.7958 127.535 77.35 121.09ZM64.4583 73.6667C59.3937 73.6667 55.25 69.5229 55.25 64.4583 55.25 59.3937 59.3937 55.25 64.4583 55.25 69.5229 55.25 73.6667 59.3937 73.6667 64.4583 73.6667 69.5229 69.5229 73.6667 64.4583 73.6667ZM177.721 113.262 113.262 48.8042C111.421 46.9625 109.119 46.0417 106.817 46.0417L64.4583 46.0417C54.3292 46.0417 46.0417 54.3292 46.0417 64.4583L46.0417 106.586C46.0417 109.119 46.9625 111.421 48.8042 113.032L113.262 177.491C116.946 181.174 122.701 181.174 126.384 177.491L177.721 126.154C181.174 122.701 181.174 116.716 177.721 113.262Z" stroke="#000000" stroke-width="6" stroke-linecap="butt" stroke-linejoin="miter" stroke-miterlimit="4" stroke-opacity="1" fill="#D9D9D9" fill-rule="nonzero" fill-opacity="1" transform="matrix(1.00452 0 0 1 857 348)"/></g></g></g></g></svg>