<svg width="55" height="79" xmlns="http://www.w3.org/2000/svg" xmlns:xlink="http://www.w3.org/1999/xlink" xml:space="preserve" overflow="hidden"><defs><clipPath id="clip0"><rect x="749" y="45" width="55" height="79"/></clipPath><clipPath id="clip1"><rect x="750" y="46" width="54" height="78"/></clipPath><clipPath id="clip2"><rect x="750" y="46" width="54" height="78"/></clipPath><clipPath id="clip3"><rect x="750" y="46" width="54" height="78"/></clipPath></defs><g clip-path="url(#clip0)" transform="translate(-749 -45)"><g clip-path="url(#clip1)"><g clip-path="url(#clip2)"><g clip-path="url(#clip3)"><path d="M781.5 50.5C781.5 48.0147 779.485 46 777 46 774.515 46 772.5 48.0147 772.5 50.5L772.5 52 781.5 52Z" fill="#005FA5" fill-rule="nonzero" fill-opacity="1"/><path d="M804 64 804 61 783 55 771 55 750 61 750 64 753 64 753 73 750 73 750 76 765 79 765 85 769.5 85 769.5 115 762 121 757.5 121C755.843 121 754.5 122.343 754.5 124L799.5 124C799.5 122.343 798.157 121 796.5 121L792 121 784.5 115 784.5 85 789 85 789 79 804 76 804 73 801 73 801 64ZM784.5 73 769.5 73 769.5 64 784.5 64ZM756 64 766.5 64 766.5 73 756 73ZM798 73 787.5 73 787.5 64 798 64Z" fill="#000000" fill-rule="nonzero" fill-opacity="1"/></g></g></g></g></svg>